inDegrees=no
num_controls=7
num_derivatives=13
num_iterations=110
num_multipliers=7
num_parameters=0
num_slacks=7
num_states=26
objective=0.431120
objective_accelerations=0.049664
objective_balance=0.006834
objective_effort=0.031111
objective_height=0.342338
objective_ligament=0.001172
solver_duration=1429.128797
status=Solve_Succeeded
success=true
DataType=double
version=3
OpenSimVersion=4.5
endheader
time	/jointset/ground_pelvis/pelvis_tilt/value	/jointset/ground_pelvis/pelvis_tx/value	/jointset/ground_pelvis/pelvis_ty/value	/jointset/hip_l/hip_flexion_l/value	/jointset/hip_l/hip_adduction_l/value	/jointset/hip_l/hip_rotation_l/value	/jointset/back/lumbar_extension/value	/jointset/patellofemoral_l/patellar_flexion_l/value	/jointset/knee_l/knee_flexion_l/value	/jointset/knee_l/knee_adduction_l/value	/jointset/knee_l/knee_rotation_l/value	/jointset/ankle_l/ankle_angle_l/value	/jointset/subtalar_l/subtalar_angle_l/value	/jointset/ground_pelvis/pelvis_tilt/speed	/jointset/ground_pelvis/pelvis_tx/speed	/jointset/ground_pelvis/pelvis_ty/speed	/jointset/hip_l/hip_flexion_l/speed	/jointset/hip_l/hip_adduction_l/speed	/jointset/hip_l/hip_rotation_l/speed	/jointset/back/lumbar_extension/speed	/jointset/patellofemoral_l/patellar_flexion_l/speed	/jointset/knee_l/knee_flexion_l/speed	/jointset/knee_l/knee_adduction_l/speed	/jointset/knee_l/knee_rotation_l/speed	/jointset/ankle_l/ankle_angle_l/speed	/jointset/subtalar_l/subtalar_angle_l/speed	/forceset/tau_hip_flexion_l	/forceset/tau_hip_adduction_l	/forceset/tau_hip_rotation_l	/forceset/tau_knee_flexion_l	/forceset/tau_ankle_angle_l	/forceset/tau_subtalar_angle_l	/forceset/tau_lumbar_extension	lambda_cid13_p0	lambda_cid13_p1	lambda_cid13_p2	lambda_cid13_p3	lambda_cid13_p4	lambda_cid13_p5	lambda_cid14_p0	/jointset/ground_pelvis/pelvis_tilt/accel	/jointset/ground_pelvis/pelvis_tx/accel	/jointset/ground_pelvis/pelvis_ty/accel	/jointset/hip_l/hip_flexion_l/accel	/jointset/hip_l/hip_adduction_l/accel	/jointset/hip_l/hip_rotation_l/accel	/jointset/back/lumbar_extension/accel	/jointset/patellofemoral_l/patellar_flexion_l/accel	/jointset/knee_l/knee_flexion_l/accel	/jointset/knee_l/knee_adduction_l/accel	/jointset/knee_l/knee_rotation_l/accel	/jointset/ankle_l/ankle_angle_l/accel	/jointset/subtalar_l/subtalar_angle_l/accel	gamma_cid13_p0	gamma_cid13_p1	gamma_cid13_p2	gamma_cid13_p3	gamma_cid13_p4	gamma_cid13_p5	gamma_cid14_p0
0	-0.1566387586068403	0.05726134690886025	0.8978819106169296	0.3774924667018715	-0.2608061217725204	-0.244170414919955	-0.01265067647494873	0.03223648243721464	0.03223648243721463	-0.1745329095581641	0.1470482836548218	-0.04231377076293093	-0.01126679603668687	0	0	0	0	0	0	0	0	0	0	0	0	0	0.16155146844521	-0.08689040505943914	-0.05362101839819591	-0.3549830132841055	0.4076920498811017	-0.05449670149788465	-0.0958608409601822	89.199889870158	4.021146258712595	3.558035396822092	-41.94545281108579	-591.7021956330697	-69.92617125971071	-38.24258729005874	-2.939698560166731	-1.167753867303128	-0.9493570112468117	10.73930433740205	-1.335209125045071	3.397071822515046	-5.444460382002839	10.71611134522033	10.7161113452037	0.03790429135616691	0.3597673630217673	3.160984703284055	-0.6300131327157541	-7.010657771206065e-08	3.1936646574584e-08	1.414091157727504e-07	4.547716631979255e-08	-5.609527217366967e-08	-1.4032965349007e-07	-2.245321880808589e-08
0.01	-0.1567780053437777	0.05720097154484066	0.8978354339601911	0.3780168526469169	-0.2608724961008811	-0.2440012939393424	-0.01292376530557101	0.03276035100146774	0.03276035100146674	-0.1745328379552791	0.1470628989162732	-0.04216333684826612	-0.01129966899551791	-0.02752064106111508	-0.01230603879030573	-0.009279338838351914	0.1045623329750514	-0.01320189769556705	0.03366503602782109	-0.05425278794110935	0.104318628008802	0.1043186280088	2.631868043075137e-05	0.002908114396962054	0.02959511663308194	-0.006618044376789463	0.1428700637193034	-0.09547148683126587	-0.0484798789822449	-0.3216263476244651	0.3522173611520303	-0.02833818828672358	-0.08310968411264286	72.24950968944046	-4.25449720491995	4.74362846163786	-28.73382730286519	-591.7132346730235	-84.67960137336213	-38.25791629528552	-2.608946646828887	-1.296664687417813	-0.9148346627746103	10.26746207542509	-1.301767860470534	3.327326527471577	-5.36094127267768	10.22148029307851	10.22148029308848	-0.01317577816137142	0.2540752189491515	2.785018254880242	-0.6842384171411001	-8.269993471874998e-08	7.686283041699905e-08	1.671801964814571e-07	4.97386384164433e-08	-1.429525971912482e-07	-8.785260226774421e-08	-2.742367532515125e-08
0.02	-0.1571825984448743	0.05701060863241331	0.89769664144654	0.3795774147812863	-0.2610687069599292	-0.2435003011915405	-0.01372843267010672	0.03431375419868277	0.03431375419868313	-0.1745321374524559	0.1471061436698776	-0.04173170314495845	-0.01140003006351295	-0.05306927283203518	-0.02599750968155371	-0.01846317138248425	0.2072352378648377	-0.02596730613745461	0.06637435343788016	-0.1063157067827273	0.2059069265923396	0.2059069265924142	0.0001257799789461348	0.005725898430552896	0.05623995772856353	-0.01349762183280107	0.1241886589933968	-0.1040525686030937	-0.04333873956628723	-0.2882696819648185	0.2967426724229622	-0.002179675075562907	-0.07035852726510794	55.38508320920138	-12.54864827404049	5.936127689687877	-15.7497506336617	-590.4593572949992	-99.32385140292861	-38.30350473812614	-2.545296702127738	-1.444840287491581	-0.9302557524028927	10.36141872034902	-1.247911274309146	3.205928098962644	-5.006486562104574	10.17004546016742	10.17004546016656	0.05253281497314816	0.3417012903475212	2.570929595763993	-0.6823197485601529	-9.529329172543933e-08	1.217890142594141e-07	1.929512771901639e-07	5.400011051309404e-08	-2.298099222088267e-07	-3.537555104541843e-08	-3.239413184221662e-08
0.03	-0.1578352233665868	0.05667981792375547	0.8974664373241651	0.382153800466193	-0.2613900390780736	-0.2426769197095318	-0.01504274538010065	0.03686959656039415	0.03686959656039402	-0.1745297869336225	0.1471772791621035	-0.04104390918672206	-0.01156916197628623	-0.0773378386059609	-0.04004848949128204	-0.02756131950191712	0.307524550602827	-0.0382026418551244	0.09815172944557876	-0.1562087644523945	0.3047925218257257	0.3047925218257051	0.0003593420550489368	0.008490368741250391	0.08125923632409125	-0.02025287842961782	0.120404911358631	-0.09782624507490346	-0.04298068041297882	-0.286120732862388	0.295817836339331	-0.006531399525171346	-0.06700744060708733	54.9266573492151	-10.72694515680987	5.815339639949061	-16.10811532263902	-590.7577923396232	-95.0209972698631	-38.37790688088579	-2.349964421822109	-1.368394626658924	-0.8971906160461199	9.785071654245147	-1.196905260623485	3.1410833432222	-4.93000475485862	9.677469465206366	9.677469465193655	0.01106101779750196	0.242170083666265	2.458481320544986	-0.6607866772790477	-1.225801166933345e-07	1.262872923366387e-07	2.339582840507658e-07	7.974351425948711e-08	-3.576943484524753e-07	-4.090324092960461e-08	-4.012878535586845e-08
